{"accessors" : [{"bufferView" : 0, "byteOffset" : 0, "componentType" : 5123, "count" : 48, "type" : "SCALAR", "max" : [29], "min" : [0]}, {"bufferView" : 1, "byteOffset" : 0, "componentType" : 5126, "count" : 30, "type" : "VEC3", "max" : [0.5, 0.10000000149011612, 0.5773502588272095], "min" : [-0.5, 0, -0.5773502588272095]}, {"bufferView" : 1, "byteOffset" : 12, "componentType" : 5126, "count" : 30, "type" : "VEC3", "max" : [1.0000044107437134, 0, 0.8660292029380798], "min" : [-1.0000044107437134, -1.0000044107437134, -0.8660292029380798]}, {"bufferView" : 1, "byteOffset" : 24, "componentType" : 5126, "count" : 30, "type" : "VEC2", "max" : [19.685039520263672, 21.73032569885254], "min" : [-19.685039520263672, -23.73032569885254]}, {"bufferView" : 0, "byteOffset" : 96, "componentType" : 5123, "count" : 48, "type" : "SCALAR", "max" : [29], "min" : [0]}, {"bufferView" : 2, "byteOffset" : 0, "componentType" : 5126, "count" : 30, "type" : "VEC3", "max" : [0.5, 0.20000000298023224, 0.5773502588272095], "min" : [-0.5, 0.10000000149011612, -0.5773502588272095]}, {"bufferView" : 2, "byteOffset" : 12, "componentType" : 5126, "count" : 30, "type" : "VEC3", "max" : [1.0000044107437134, 1.0000044107437134, 0.8660292029380798], "min" : [-1.0000044107437134, 0, -0.8660292029380798]}, {"bufferView" : 2, "byteOffset" : 24, "componentType" : 5126, "count" : 30, "type" : "VEC2", "max" : [19.685039520263672, 21.73032569885254], "min" : [-19.685039520263672, -23.73032569885254]}, {"bufferView" : 0, "byteOffset" : 192, "componentType" : 5123, "count" : 132, "type" : "SCALAR", "max" : [67], "min" : [0]}, {"bufferView" : 3, "byteOffset" : 0, "componentType" : 5126, "count" : 68, "type" : "VEC3", "max" : [0.17999999225139618, 0.3780701458454132, 0.19200000166893005], "min" : [-0.17999999225139618, 0.07599999755620956, -0.19200000166893005]}, {"bufferView" : 3, "byteOffset" : 12, "componentType" : 5126, "count" : 68, "type" : "VEC3", "max" : [1.0000044107437134, 0.600002646446228, 0.8000034689903259], "min" : [-1.0000044107437134, -0.8000034689903259, -0.8000034689903259]}, {"bufferView" : 3, "byteOffset" : 24, "componentType" : 5126, "count" : 68, "type" : "VEC2", "max" : [7.559055328369141, 2.574803113937378], "min" : [-7.559055328369141, -13.884652137756348]}, {"bufferView" : 0, "byteOffset" : 456, "componentType" : 5123, "count" : 54, "type" : "SCALAR", "max" : [31], "min" : [0]}, {"bufferView" : 4, "byteOffset" : 0, "componentType" : 5126, "count" : 32, "type" : "VEC3", "max" : [0.15000000596046448, 0.125, 0.15000000596046448], "min" : [-0.15000000596046448, 0, -0.15000000596046448]}, {"bufferView" : 4, "byteOffset" : 12, "componentType" : 5126, "count" : 32, "type" : "VEC3", "max" : [1.0000044107437134, 0, 1.0000044107437134], "min" : [-1.0000044107437134, -1.0000044107437134, -1.0000044107437134]}, {"bufferView" : 4, "byteOffset" : 24, "componentType" : 5126, "count" : 32, "type" : "VEC2", "max" : [5.905511856079102, 6.905511856079102], "min" : [-5.905511856079102, -4.905511856079102]}, {"bufferView" : 0, "byteOffset" : 564, "componentType" : 5123, "count" : 54, "type" : "SCALAR", "max" : [25], "min" : [0]}, {"bufferView" : 5, "byteOffset" : 0, "componentType" : 5126, "count" : 26, "type" : "VEC3", "max" : [0.15000000596046448, 0.30000001192092896, 0.15000000596046448], "min" : [-0.15000000596046448, 0, -0.15000000596046448]}, {"bufferView" : 5, "byteOffset" : 12, "componentType" : 5126, "count" : 26, "type" : "VEC3", "max" : [1.0000044107437134, 0, 1.0000044107437134], "min" : [-1.0000044107437134, 0, -1.0000044107437134]}, {"bufferView" : 5, "byteOffset" : 24, "componentType" : 5126, "count" : 26, "type" : "VEC2", "max" : [5.905511856079102, 1], "min" : [-5.905511856079102, -10.811023712158203]}, {"bufferView" : 0, "byteOffset" : 672, "componentType" : 5123, "count" : 84, "type" : "SCALAR", "max" : [47], "min" : [0]}, {"bufferView" : 6, "byteOffset" : 0, "componentType" : 5126, "count" : 48, "type" : "VEC3", "max" : [0.07411500066518784, 0.4000000059604645, 0.04050000011920929], "min" : [-0.07411500066518784, 0, -0.04050000011920929]}, {"bufferView" : 6, "byteOffset" : 12, "componentType" : 5126, "count" : 48, "type" : "VEC3", "max" : [0.9992544054985046, 1.0000044107437134, 0.9992544054985046], "min" : [-0.9992544054985046, -1.0000044107437134, -0.9992544054985046]}, {"bufferView" : 6, "byteOffset" : 24, "componentType" : 5126, "count" : 48, "type" : "VEC2", "max" : [2.9179134368896484, 2.5944881439208984], "min" : [-2.9179134368896484, -14.698110580444336]}, {"bufferView" : 0, "byteOffset" : 840, "componentType" : 5123, "count" : 12, "type" : "SCALAR", "max" : [7], "min" : [0]}, {"bufferView" : 7, "byteOffset" : 0, "componentType" : 5126, "count" : 8, "type" : "VEC3", "max" : [0.17499999701976776, 0.07500000298023224, 7.219114108078224E-16], "min" : [-0.17499999701976776, 0, 3.609557054039112E-16]}, {"bufferView" : 7, "byteOffset" : 12, "componentType" : 5126, "count" : 8, "type" : "VEC3", "max" : [0, 0, 1.0000044107437134], "min" : [0, 0, -1.0000044107437134]}, {"bufferView" : 7, "byteOffset" : 24, "componentType" : 5126, "count" : 8, "type" : "VEC2", "max" : [6.889763832092285, 1.9527559280395508], "min" : [-6.889763832092285, -1]}, {"bufferView" : 0, "byteOffset" : 864, "componentType" : 5123, "count" : 84, "type" : "SCALAR", "max" : [51], "min" : [0]}, {"bufferView" : 8, "byteOffset" : 0, "componentType" : 5126, "count" : 52, "type" : "VEC3", "max" : [0.22499999403953552, 0.10000000149011612, 0.02500000037252903], "min" : [-0.22499999403953552, 0, -0.02500000037252903]}, {"bufferView" : 8, "byteOffset" : 12, "componentType" : 5126, "count" : 52, "type" : "VEC3", "max" : [1.0000044107437134, 1.0000044107437134, 1.0000044107437134], "min" : [-1.0000044107437134, -1.0000044107437134, -1.0000044107437134]}, {"bufferView" : 8, "byteOffset" : 24, "componentType" : 5126, "count" : 52, "type" : "VEC2", "max" : [8.858267784118652, 2.9370079040527344], "min" : [-8.858267784118652, -1.9842519760131836]}, {"bufferView" : 0, "byteOffset" : 1032, "componentType" : 5123, "count" : 60, "type" : "SCALAR", "max" : [35], "min" : [0]}, {"bufferView" : 9, "byteOffset" : 0, "componentType" : 5126, "count" : 36, "type" : "VEC3", "max" : [0.09615461528301239, 0.019999999552965164, 0.09700451046228409], "min" : [-0.09615461528301239, 0, -0.09700451046228409]}, {"bufferView" : 9, "byteOffset" : 12, "componentType" : 5126, "count" : 36, "type" : "VEC3", "max" : [0.6582280397415161, 1.0000044107437134, 0.652461051940918], "min" : [-0.6582280397415161, -1.0000044107437134, -0.652461051940918]}, {"bufferView" : 9, "byteOffset" : 24, "componentType" : 5126, "count" : 36, "type" : "VEC2", "max" : [3.7856147289276123, 4.819075584411621], "min" : [-3.7856147289276123, -2.819075345993042]}, {"bufferView" : 0, "byteOffset" : 1152, "componentType" : 5123, "count" : 60, "type" : "SCALAR", "max" : [35], "min" : [0]}, {"bufferView" : 10, "byteOffset" : 0, "componentType" : 5126, "count" : 36, "type" : "VEC3", "max" : [0.09615461528301239, 0.019999999552965164, 0.09700451046228409], "min" : [-0.09615461528301239, 0, -0.09700451046228409]}, {"bufferView" : 10, "byteOffset" : 12, "componentType" : 5126, "count" : 36, "type" : "VEC3", "max" : [0.6582280397415161, 1.0000044107437134, 0.652461051940918], "min" : [-0.6582280397415161, -1.0000044107437134, -0.652461051940918]}, {"bufferView" : 10, "byteOffset" : 24, "componentType" : 5126, "count" : 36, "type" : "VEC2", "max" : [3.7856147289276123, 4.819075584411621], "min" : [-3.7856147289276123, -2.819075345993042]}, {"bufferView" : 0, "byteOffset" : 1272, "componentType" : 5123, "count" : 102, "type" : "SCALAR", "max" : [51], "min" : [0]}, {"bufferView" : 11, "byteOffset" : 0, "componentType" : 5126, "count" : 52, "type" : "VEC3", "max" : [0.10000000149011612, 0.3799999952316284, 0.10000000149011612], "min" : [-0.10000000149011612, 0.07999999821186066, -0.10000000149011612]}, {"bufferView" : 11, "byteOffset" : 12, "componentType" : 5126, "count" : 52, "type" : "VEC3", "max" : [0.970146656036377, 1.0000044107437134, 0.970146656036377], "min" : [-0.970146656036377, -1.0000044107437134, -0.970146656036377]}, {"bufferView" : 11, "byteOffset" : 24, "componentType" : 5126, "count" : 52, "type" : "VEC2", "max" : [3.9370079040527344, 12.582686424255371], "min" : [-3.9370079040527344, -4.937007904052734]}, {"bufferView" : 0, "byteOffset" : 1476, "componentType" : 5123, "count" : 30, "type" : "SCALAR", "max" : [19], "min" : [0]}, {"bufferView" : 12, "byteOffset" : 0, "componentType" : 5126, "count" : 20, "type" : "VEC3", "max" : [0.030000001192092896, 0.07999999821186066, 0.030000001192092896], "min" : [-0.030000001192092896, 0, -0.030000001192092896]}, {"bufferView" : 12, "byteOffset" : 12, "componentType" : 5126, "count" : 20, "type" : "VEC3", "max" : [1.0000044107437134, 0, 1.0000044107437134], "min" : [-1.0000044107437134, -1.0000044107437134, -1.0000044107437134]}, {"bufferView" : 12, "byteOffset" : 24, "componentType" : 5126, "count" : 20, "type" : "VEC2", "max" : [1.1811023950576782, 2.149606227874756], "min" : [-1.1811023950576782, -2.1811022758483887]}], "asset" : {"generator" : "Aspose.3D 21.1", "version" : "2.0"}, "buffers" : [{"uri" : "buffer.bin", "byteLength" : 26164}], "bufferViews" : [{"buffer" : 0, "byteOffset" : 0, "byteLength" : 1536, "target" : 34963}, {"buffer" : 0, "byteOffset" : 1540, "byteLength" : 1536, "byteStride" : 32, "target" : 34962}, {"buffer" : 0, "byteOffset" : 3080, "byteLength" : 1536, "byteStride" : 32, "target" : 34962}, {"buffer" : 0, "byteOffset" : 4620, "byteLength" : 4224, "byteStride" : 32, "target" : 34962}, {"buffer" : 0, "byteOffset" : 8848, "byteLength" : 1728, "byteStride" : 32, "target" : 34962}, {"buffer" : 0, "byteOffset" : 10580, "byteLength" : 1728, "byteStride" : 32, "target" : 34962}, {"buffer" : 0, "byteOffset" : 12312, "byteLength" : 2688, "byteStride" : 32, "target" : 34962}, {"buffer" : 0, "byteOffset" : 15004, "byteLength" : 384, "byteStride" : 32, "target" : 34962}, {"buffer" : 0, "byteOffset" : 15392, "byteLength" : 2688, "byteStride" : 32, "target" : 34962}, {"buffer" : 0, "byteOffset" : 18084, "byteLength" : 1920, "byteStride" : 32, "target" : 34962}, {"buffer" : 0, "byteOffset" : 20008, "byteLength" : 1920, "byteStride" : 32, "target" : 34962}, {"buffer" : 0, "byteOffset" : 21932, "byteLength" : 3264, "byteStride" : 32, "target" : 34962}, {"buffer" : 0, "byteOffset" : 25200, "byteLength" : 960, "byteStride" : 32, "target" : 34962}], "materials" : [{"pbrMetallicRoughness" : {"baseColorFactor" : [0.8862745, 0.5137255, 0.34117648, 1], "metallicFactor" : 1, "roughnessFactor" : 1}, "emissiveFactor" : [0, 0, 0], "alphaMode" : "OPAQUE", "doubleSided" : false}, {"pbrMetallicRoughness" : {"baseColorFactor" : [0.206523657, 0.8584906, 0.638563931, 1], "metallicFactor" : 1, "roughnessFactor" : 1}, "emissiveFactor" : [0, 0, 0], "alphaMode" : "OPAQUE", "doubleSided" : false}, {"pbrMetallicRoughness" : {"baseColorFactor" : [0.388928443, 0.510457158, 0.8679245, 1], "metallicFactor" : 1, "roughnessFactor" : 1}, "emissiveFactor" : [0, 0, 0], "alphaMode" : "OPAQUE", "doubleSided" : false}, {"pbrMetallicRoughness" : {"baseColorFactor" : [0.709803939, 0.407843143, 0.270588249, 1], "metallicFactor" : 1, "roughnessFactor" : 1}, "emissiveFactor" : [0, 0, 0], "alphaMode" : "OPAQUE", "doubleSided" : false}, {"pbrMetallicRoughness" : {"baseColorFactor" : [0.8862745, 0.5137255, 0.34117648, 1], "metallicFactor" : 1, "roughnessFactor" : 1}, "emissiveFactor" : [0, 0, 0], "alphaMode" : "OPAQUE", "doubleSided" : false}, {"pbrMetallicRoughness" : {"baseColorFactor" : [0.6775098, 0.798137069, 0.8207547, 1], "metallicFactor" : 1, "roughnessFactor" : 1}, "emissiveFactor" : [0, 0, 0], "alphaMode" : "OPAQUE", "doubleSided" : false}, {"pbrMetallicRoughness" : {"baseColorFactor" : [0.709803939, 0.407843143, 0.270588249, 1], "metallicFactor" : 1, "roughnessFactor" : 1}, "emissiveFactor" : [0, 0, 0], "alphaMode" : "OPAQUE", "doubleSided" : false}, {"pbrMetallicRoughness" : {"baseColorFactor" : [0.8862745, 0.5137255, 0.34117648, 1], "metallicFactor" : 1, "roughnessFactor" : 1}, "emissiveFactor" : [0, 0, 0], "alphaMode" : "OPAQUE", "doubleSided" : false}, {"pbrMetallicRoughness" : {"baseColorFactor" : [0.8862745, 0.5137255, 0.34117648, 1], "metallicFactor" : 1, "roughnessFactor" : 1}, "emissiveFactor" : [0, 0, 0], "alphaMode" : "OPAQUE", "doubleSided" : false}, {"pbrMetallicRoughness" : {"baseColorFactor" : [0.8862745, 0.5137255, 0.34117648, 1], "metallicFactor" : 1, "roughnessFactor" : 1}, "emissiveFactor" : [0, 0, 0], "alphaMode" : "OPAQUE", "doubleSided" : false}, {"pbrMetallicRoughness" : {"baseColorFactor" : [0.135368466, 0.735849, 0.617186666, 1], "metallicFactor" : 1, "roughnessFactor" : 1}, "emissiveFactor" : [0, 0, 0], "alphaMode" : "OPAQUE", "doubleSided" : false}, {"pbrMetallicRoughness" : {"baseColorFactor" : [0.709803939, 0.407843143, 0.270588249, 1], "metallicFactor" : 1, "roughnessFactor" : 1}, "emissiveFactor" : [0, 0, 0], "alphaMode" : "OPAQUE", "doubleSided" : false}], "meshes" : [{"primitives" : [{"attributes" : {"POSITION" : 1, "NORMAL" : 2, "TEXCOORD_0" : 3}, "indices" : 0, "material" : 0, "mode" : 4}, {"attributes" : {"POSITION" : 5, "NORMAL" : 6, "TEXCOORD_0" : 7}, "indices" : 4, "material" : 1, "mode" : 4}]}, {"primitives" : [{"attributes" : {"POSITION" : 9, "NORMAL" : 10, "TEXCOORD_0" : 11}, "indices" : 8, "material" : 2, "mode" : 4}, {"attributes" : {"POSITION" : 13, "NORMAL" : 14, "TEXCOORD_0" : 15}, "indices" : 12, "material" : 3, "mode" : 4}, {"attributes" : {"POSITION" : 17, "NORMAL" : 18, "TEXCOORD_0" : 19}, "indices" : 16, "material" : 4, "mode" : 4}]}, {"primitives" : [{"attributes" : {"POSITION" : 21, "NORMAL" : 22, "TEXCOORD_0" : 23}, "indices" : 20, "material" : 5, "mode" : 4}]}, {"primitives" : [{"attributes" : {"POSITION" : 25, "NORMAL" : 26, "TEXCOORD_0" : 27}, "indices" : 24, "material" : 6, "mode" : 4}, {"attributes" : {"POSITION" : 29, "NORMAL" : 30, "TEXCOORD_0" : 31}, "indices" : 28, "material" : 7, "mode" : 4}]}, {"primitives" : [{"attributes" : {"POSITION" : 33, "NORMAL" : 34, "TEXCOORD_0" : 35}, "indices" : 32, "material" : 8, "mode" : 4}]}, {"primitives" : [{"attributes" : {"POSITION" : 37, "NORMAL" : 38, "TEXCOORD_0" : 39}, "indices" : 36, "material" : 9, "mode" : 4}]}, {"primitives" : [{"attributes" : {"POSITION" : 41, "NORMAL" : 42, "TEXCOORD_0" : 43}, "indices" : 40, "material" : 10, "mode" : 4}, {"attributes" : {"POSITION" : 45, "NORMAL" : 46, "TEXCOORD_0" : 47}, "indices" : 44, "material" : 11, "mode" : 4}]}, {"primitives" : [{"attributes" : {"POSITION" : 41, "NORMAL" : 42, "TEXCOORD_0" : 43}, "indices" : 40, "material" : 10, "mode" : 4}, {"attributes" : {"POSITION" : 45, "NORMAL" : 46, "TEXCOORD_0" : 47}, "indices" : 44, "material" : 11, "mode" : 4}]}, {"primitives" : [{"attributes" : {"POSITION" : 41, "NORMAL" : 42, "TEXCOORD_0" : 43}, "indices" : 40, "material" : 10, "mode" : 4}, {"attributes" : {"POSITION" : 45, "NORMAL" : 46, "TEXCOORD_0" : 47}, "indices" : 44, "material" : 11, "mode" : 4}]}], "nodes" : [{"matrix" : [1, 0, 0, 0, 0, 1, 0, 0, 0, 0, 1, 0, -0.06614332, 0.2, 0.137195557, 1], "mesh" : 1, "name" : "building"}, {"matrix" : [1, 0, 0, 0, 0, 1, 0, 0, 0, 0, 1, 0, -0.0564778075, 0.2, -0.0533044375, 1], "mesh" : 2, "name" : "chimney"}, {"matrix" : [0.86602555400558, 0, 0.49999975783902006, 0, 0, 1, 0, 0, -0.49999975783902006, 0, 0.86602555400558, 0, 0.182774, 0.2, -0.4061918, 1], "mesh" : 3, "name" : "fence"}, {"matrix" : [0.74, 0, 0, 0, 0, 1, 0, 0, 0, 0, 0.74, 0, 0.370733142, 0.2, -0.113101147, 1], "mesh" : 4, "name" : "path"}, {"matrix" : [0.9659258686924445, 0, 0.2588186585056796, 0, 0, 1, 0, 0, -0.2588186585056796, 0, 0.9659258686924445, 0, 0.216074526, 0.2, 0.0604062937, 1], "mesh" : 5, "name" : "path"}, {"matrix" : [0.6668396765842967, 0, 0.38499981353604545, 0, 0, 0.77, 0, 0, -0.38499981353604545, 0, 0.6668396765842967, 0, 0.053192962, 0.2, -0.295764416, 1], "mesh" : 6, "name" : "tree"}, {"matrix" : [1, 0, 0, 0, 0, 1, 0, 0, 0, 0, 1, 0, -0.2274506, 0.2, -0.213524833, 1], "mesh" : 7, "name" : "tree"}, {"matrix" : [0.6009315039283865, 0, -0.4814367351965865, 0, 0, 0.77, 0, 0, 0.4814367351965865, 0, 0.6009315039283865, 0, 0.3262593, 0.2, 0.271077842, 1], "mesh" : 8, "name" : "tree"}, {"children" : [0, 1, 2, 3, 4, 5, 6, 7], "mesh" : 0, "name" : "building_house"}], "scene" : 0, "scenes" : [{"nodes" : [8]}]}