{"accessors" : [{"bufferView" : 0, "byteOffset" : 0, "componentType" : 5123, "count" : 60, "type" : "SCALAR", "max" : [35], "min" : [0]}, {"bufferView" : 1, "byteOffset" : 0, "componentType" : 5126, "count" : 36, "type" : "VEC3", "max" : [0.5, 0.20000000298023224, 0.5773502588272095], "min" : [-0.5, 0, -0.5773502588272095]}, {"bufferView" : 1, "byteOffset" : 12, "componentType" : 5126, "count" : 36, "type" : "VEC3", "max" : [1.0000044107437134, 1.0000044107437134, 0.8660292029380798], "min" : [-1.0000044107437134, -1.0000044107437134, -0.8660292029380798]}, {"bufferView" : 1, "byteOffset" : 24, "componentType" : 5126, "count" : 36, "type" : "VEC2", "max" : [19.685039520263672, 21.73032569885254], "min" : [-19.685039520263672, -23.73032569885254]}, {"bufferView" : 0, "byteOffset" : 120, "componentType" : 5123, "count" : 72, "type" : "SCALAR", "max" : [35], "min" : [0]}, {"bufferView" : 2, "byteOffset" : 0, "componentType" : 5126, "count" : 36, "type" : "VEC3", "max" : [0.5, 0.20000000298023224, 0.5773502588272095], "min" : [-0.5, 0.10000000149011612, -0.5773502588272095]}, {"bufferView" : 2, "byteOffset" : 12, "componentType" : 5126, "count" : 36, "type" : "VEC3", "max" : [1.0000044107437134, 1.0000044107437134, 0.8660292029380798], "min" : [-1.0000044107437134, 0, -0.8660292029380798]}, {"bufferView" : 2, "byteOffset" : 24, "componentType" : 5126, "count" : 36, "type" : "VEC2", "max" : [19.685039520263672, 21.73032569885254], "min" : [-19.685039520263672, -23.73032569885254]}, {"bufferView" : 0, "byteOffset" : 264, "componentType" : 5123, "count" : 96, "type" : "SCALAR", "max" : [59], "min" : [0]}, {"bufferView" : 3, "byteOffset" : 0, "componentType" : 5126, "count" : 60, "type" : "VEC3", "max" : [0.23094011843204498, 0.125, 0.02500000037252903], "min" : [-0.23094011843204498, 0, -0.02500000037252903]}, {"bufferView" : 3, "byteOffset" : 12, "componentType" : 5126, "count" : 60, "type" : "VEC3", "max" : [1.0000044107437134, 1.0000044107437134, 1.0000044107437134], "min" : [-1.0000044107437134, -1.0000044107437134, -1.0000044107437134]}, {"bufferView" : 3, "byteOffset" : 24, "componentType" : 5126, "count" : 60, "type" : "VEC2", "max" : [9.092130661010742, 1.9842519760131836], "min" : [-9.092130661010742, -3.921259880065918]}, {"bufferView" : 0, "byteOffset" : 456, "componentType" : 5123, "count" : 84, "type" : "SCALAR", "max" : [47], "min" : [0]}, {"bufferView" : 4, "byteOffset" : 0, "componentType" : 5126, "count" : 48, "type" : "VEC3", "max" : [0.25, 0.07999999821186066, 0.25], "min" : [-0.25, 0, -0.25]}, {"bufferView" : 4, "byteOffset" : 12, "componentType" : 5126, "count" : 48, "type" : "VEC3", "max" : [1.0000044107437134, 1.0000044107437134, 1.0000044107437134], "min" : [-1.0000044107437134, -1.0000044107437134, -1.0000044107437134]}, {"bufferView" : 4, "byteOffset" : 24, "componentType" : 5126, "count" : 48, "type" : "VEC2", "max" : [9.842519760131836, 10.842519760131836], "min" : [-9.842519760131836, -8.842519760131836]}, {"bufferView" : 0, "byteOffset" : 624, "componentType" : 5123, "count" : 60, "type" : "SCALAR", "max" : [39], "min" : [0]}, {"bufferView" : 5, "byteOffset" : 0, "componentType" : 5126, "count" : 40, "type" : "VEC3", "max" : [0.05000000074505806, 0.20000000298023224, 0.05000000074505806], "min" : [-0.05000000074505806, 0, -0.05000000074505806]}, {"bufferView" : 5, "byteOffset" : 12, "componentType" : 5126, "count" : 40, "type" : "VEC3", "max" : [0.970146656036377, 1.0000044107437134, 0.970146656036377], "min" : [-0.970146656036377, -1.0000044107437134, -0.970146656036377]}, {"bufferView" : 5, "byteOffset" : 24, "componentType" : 5126, "count" : 40, "type" : "VEC2", "max" : [1.9685039520263672, 2.968503952026367], "min" : [-1.9685039520263672, -7.116349220275879]}], "asset" : {"generator" : "Aspose.3D 21.1", "version" : "2.0"}, "buffers" : [{"uri" : "buffer.bin", "byteLength" : 12672}], "bufferViews" : [{"buffer" : 0, "byteOffset" : 0, "byteLength" : 744, "target" : 34963}, {"buffer" : 0, "byteOffset" : 748, "byteLength" : 1920, "byteStride" : 32, "target" : 34962}, {"buffer" : 0, "byteOffset" : 2672, "byteLength" : 2304, "byteStride" : 32, "target" : 34962}, {"buffer" : 0, "byteOffset" : 4980, "byteLength" : 3072, "byteStride" : 32, "target" : 34962}, {"buffer" : 0, "byteOffset" : 8056, "byteLength" : 2688, "byteStride" : 32, "target" : 34962}, {"buffer" : 0, "byteOffset" : 10748, "byteLength" : 1920, "byteStride" : 32, "target" : 34962}], "materials" : [{"pbrMetallicRoughness" : {"baseColorFactor" : [0.8862745, 0.5137255, 0.34117648, 1], "metallicFactor" : 1, "roughnessFactor" : 1}, "emissiveFactor" : [0, 0, 0], "alphaMode" : "OPAQUE", "doubleSided" : false}, {"pbrMetallicRoughness" : {"baseColorFactor" : [0.206523657, 0.8584906, 0.638563931, 1], "metallicFactor" : 1, "roughnessFactor" : 1}, "emissiveFactor" : [0, 0, 0], "alphaMode" : "OPAQUE", "doubleSided" : false}, {"pbrMetallicRoughness" : {"baseColorFactor" : [0.8862745, 0.5137255, 0.34117648, 1], "metallicFactor" : 1, "roughnessFactor" : 1}, "emissiveFactor" : [0, 0, 0], "alphaMode" : "OPAQUE", "doubleSided" : false}, {"pbrMetallicRoughness" : {"baseColorFactor" : [0.9607843, 0.78039217, 0.6156863, 1], "metallicFactor" : 1, "roughnessFactor" : 1}, "emissiveFactor" : [0, 0, 0], "alphaMode" : "OPAQUE", "doubleSided" : false}, {"pbrMetallicRoughness" : {"baseColorFactor" : [0.9607843, 0.78039217, 0.6156863, 1], "metallicFactor" : 1, "roughnessFactor" : 1}, "emissiveFactor" : [0, 0, 0], "alphaMode" : "OPAQUE", "doubleSided" : false}], "meshes" : [{"primitives" : [{"attributes" : {"POSITION" : 1, "NORMAL" : 2, "TEXCOORD_0" : 3}, "indices" : 0, "material" : 0, "mode" : 4}, {"attributes" : {"POSITION" : 5, "NORMAL" : 6, "TEXCOORD_0" : 7}, "indices" : 4, "material" : 1, "mode" : 4}]}, {"primitives" : [{"attributes" : {"POSITION" : 9, "NORMAL" : 10, "TEXCOORD_0" : 11}, "indices" : 8, "material" : 2, "mode" : 4}]}, {"primitives" : [{"attributes" : {"POSITION" : 13, "NORMAL" : 14, "TEXCOORD_0" : 15}, "indices" : 12, "material" : 3, "mode" : 4}]}, {"primitives" : [{"attributes" : {"POSITION" : 17, "NORMAL" : 18, "TEXCOORD_0" : 19}, "indices" : 16, "material" : 4, "mode" : 4}]}], "nodes" : [{"matrix" : [3.446876117862985E-08, 0, -1.0000000093718584, 0, 0, 1, 0, 0, 1.0000000093718584, 0, 3.446876117862985E-08, 0, -0.375, 0.2, 9.09608353E-14, 1], "mesh" : 1, "name" : "fence"}, {"matrix" : [0.5, 0, 0.8660254, 0, 0, 1, 0, 0, -0.8660254, 0, 0.5, 0, 0.05, 0.2, 0.08660254, 1], "mesh" : 2, "name" : "grain"}, {"matrix" : [1, 0, 0, 0, 0, 1, 0, 0, 0, 0, 1, 0, -0.291089535, 0.2, -0.125801086, 1], "mesh" : 3, "name" : "grainBundle"}, {"matrix" : [0.86602555400558, 0, 0.49999975783902006, 0, 0, 0.5, 0, 0, -0.49999975783902006, 0, 0.86602555400558, 0, -0.145036, 0.2, -0.227091327, 1], "mesh" : 3, "name" : "grainBundle"}, {"children" : [0, 1, 2, 3], "mesh" : 0, "name" : "building_farm"}], "scene" : 0, "scenes" : [{"nodes" : [4]}]}