{"accessors" : [{"bufferView" : 0, "byteOffset" : 0, "componentType" : 5123, "count" : 11931, "type" : "SCALAR", "max" : [3889], "min" : [0]}, {"bufferView" : 1, "byteOffset" : 0, "componentType" : 5126, "count" : 3890, "type" : "VEC3", "max" : [0.7879509925842285, 1.9603760242462158, 0.13540799915790558], "min" : [-0.8356530070304871, 0.07063200324773788, -1.8065999746322632]}, {"bufferView" : 1, "byteOffset" : 12, "componentType" : 5126, "count" : 3890, "type" : "VEC2", "max" : [0.9920539855957031, -0.007922999560832977], "min" : [0.007946000434458256, -0.9920769929885864]}], "asset" : {"generator" : "Aspose.3D 21.1", "version" : "2.0"}, "buffers" : [{"uri" : "buffer.bin", "byteLength" : 262492}], "bufferViews" : [{"buffer" : 0, "byteOffset" : 0, "byteLength" : 23864, "target" : 34963}, {"buffer" : 0, "byteOffset" : 23868, "byteLength" : 238620, "byteStride" : 20, "target" : 34962}], "meshes" : [{"primitives" : [{"attributes" : {"POSITION" : 1, "TEXCOORD_0" : 2}, "indices" : 0, "mode" : 4}]}], "nodes" : [{"mesh" : 0, "name" : "Object_1"}], "scene" : 0, "scenes" : [{"nodes" : [0]}]}